<?xml version="1.0" encoding="UTF-8"?>
<svg id="Layer_1" xmlns="http://www.w3.org/2000/svg" version="1.1" viewBox="0 0 512 512">
  <!-- Generator: Adobe Illustrator 29.6.1, SVG Export Plug-In . SVG Version: 2.1.1 Build 9)  -->
  <defs>
    <style>
      .st0 {
        fill: #004990;
      }
    </style>
  </defs>
  <path class="st0" d="M160.01,423h-70v-226h70v226ZM166.99,125c0-22.63-18.36-41-40.98-41s-41.02,18.37-41.02,41,18.31,41,41.02,41,40.98-18.37,40.98-41ZM422,298.66c0-60.67-12.82-105.66-83.69-105.66-34.05,0-56.91,17.03-66.25,34.74h-.07v-30.74h-68v226h68v-112.21c0-29.39,7.48-57.86,43.91-57.86s37.09,33.61,37.09,59.72v110.34h69v-124.34ZM512,452V60c0-33.09-26.91-60-60-60H60C26.91,0,0,26.91,0,60v392c0,33.09,26.91,60,60,60h392c33.09,0,60-26.91,60-60ZM452,40c11.03,0,20,8.97,20,20v392c0,11.03-8.97,20-20,20H60c-11.03,0-20-8.97-20-20V60c0-11.03,8.97-20,20-20h392Z"/>
</svg>